<svg height="480pt" viewBox="0 0 480.00958 480" width="480pt" xmlns="http://www.w3.org/2000/svg"><path d="m8 64.003906h112c4.417969 0 8 3.582032 8 8v400c0 4.417969-3.582031 8-8 8h-112c-4.417969 0-8-3.582031-8-8v-400c0-4.417968 3.582031-8 8-8zm0 0" fill="#3498db"/><path d="m136 .00390625h104c4.417969 0 8 3.58203175 8 7.99999975v464c0 4.417969-3.582031 8-8 8h-104c-4.417969 0-8-3.582031-8-8v-464c0-4.417968 3.582031-7.99999975 8-7.99999975zm0 0" fill="#ffcc5c"/><path d="m474.078125 447.765625-120 32c-.679687.15625-1.378906.238281-2.078125.238281-1.410156 0-2.792969-.386718-4-1.117187-1.855469-1.0625-3.207031-2.820313-3.761719-4.882813l-96-368c-1.082031-4.257812 1.445313-8.597656 5.683594-9.757812l120-32c4.296875-1.058594 8.65625 1.492187 9.839844 5.757812l96 368c1.082031 4.257813-1.445313 8.601563-5.683594 9.761719zm0 0" fill="#b3b3b3"/><path d="m32 144.003906h64c4.417969 0 8 3.582032 8 8v64c0 4.417969-3.582031 8-8 8h-64c-4.417969 0-8-3.582031-8-8v-64c0-4.417968 3.582031-8 8-8zm0 0" fill="#b3b3b3"/><path d="m0 104.003906h128v16h-128zm0 0" fill="#003d5c"/><path d="m0 360.003906h128v16h-128zm0 0" fill="#003d5c"/><path d="m0 400.003906h128v16h-128zm0 0" fill="#003d5c"/><g fill="#603813"><path d="m128 48.003906h120v16h-120zm0 0"/><path d="m128 88.003906h120v16h-120zm0 0"/><path d="m128 384.003906h120v16h-120zm0 0"/><path d="m128 416.003906h120v16h-120zm0 0"/></g><path d="m395.503906 115.019531-135.601562 35.679688 4.042968 15.488281 135.597657-35.679688zm0 0" fill="#f7931e"/><path d="m403.3125 144.964844-135.601562 35.679687 4.042968 15.488281 135.597656-35.679687zm0 0" fill="#f7931e"/><path d="m453.265625 336.453125-135.601563 35.679687 4.039063 15.488282 135.601563-35.6875zm0 0" fill="#f7931e"/><path d="m466.015625 385.308594-135.609375 35.679687 4.042969 15.488281 135.605469-35.6875zm0 0" fill="#f7931e"/></svg>